<svg xmlns="http://www.w3.org/2000/svg" xmlns:xlink="http://www.w3.org/1999/xlink" width="500" zoomAndPan="magnify" viewBox="0 0 375 374.999991" height="500" preserveAspectRatio="xMidYMid meet" version="1.0"><path fill="#5c8dbc" d="M 352.800781 111.066406 C 352.800781 104.820312 351.457031 99.304688 348.753906 94.570312 C 346.101562 89.914062 342.132812 86.011719 336.804688 82.925781 C 292.796875 57.566406 248.761719 32.28125 204.769531 6.894531 C 192.910156 0.0507812 181.414062 0.300781 169.644531 7.242188 C 152.132812 17.566406 64.441406 67.78125 38.304688 82.910156 C 27.550781 89.136719 22.316406 98.667969 22.3125 111.054688 C 22.296875 162.058594 22.3125 213.054688 22.296875 264.066406 C 22.300781 270.167969 23.578125 275.570312 26.160156 280.238281 C 28.816406 285.03125 32.84375 289.050781 38.296875 292.207031 C 64.429688 307.332031 152.121094 357.539062 169.636719 367.867188 C 181.417969 374.820312 192.914062 375.066406 204.773438 368.214844 C 248.769531 342.828125 292.816406 317.542969 336.824219 292.195312 C 342.28125 289.039062 346.300781 285.019531 348.964844 280.222656 C 351.539062 275.570312 352.820312 270.152344 352.820312 264.039062 C 352.820312 264.039062 352.820312 162.074219 352.804688 111.066406 " fill-opacity="1" fill-rule="nonzero"/><path fill="#1a4674" d="M 188.058594 187.058594 L 26.164062 280.234375 C 28.816406 285.03125 32.84375 289.050781 38.296875 292.207031 C 64.429688 307.328125 152.121094 357.535156 169.636719 367.863281 C 181.417969 374.820312 192.914062 375.066406 204.773438 368.214844 C 248.769531 342.824219 292.8125 317.542969 336.820312 292.191406 C 342.28125 289.039062 346.300781 285.019531 348.964844 280.222656 L 188.066406 187.058594 " fill-opacity="1" fill-rule="nonzero"/><path fill="#1a4674" d="M 140.109375 214.660156 C 149.53125 231.101562 167.238281 242.191406 187.554688 242.191406 C 208 242.191406 225.808594 230.960938 235.183594 214.347656 L 188.058594 187.058594 L 140.109375 214.660156 " fill-opacity="1" fill-rule="nonzero"/><path fill="#1b598e" d="M 352.800781 111.066406 C 352.800781 104.820312 351.457031 99.304688 348.753906 94.570312 L 188.058594 187.058594 L 348.960938 280.222656 C 351.535156 275.570312 352.8125 270.152344 352.8125 264.039062 C 352.8125 264.039062 352.8125 162.074219 352.800781 111.066406 " fill-opacity="1" fill-rule="nonzero"/><path fill="#ffffff" d="M 343.957031 193.71875 L 331.386719 193.71875 L 331.386719 206.28125 L 318.804688 206.28125 L 318.804688 193.71875 L 306.234375 193.71875 L 306.234375 181.152344 L 318.804688 181.152344 L 318.804688 168.589844 L 331.386719 168.589844 L 331.386719 181.152344 L 343.957031 181.152344 L 343.957031 193.71875 " fill-opacity="1" fill-rule="nonzero"/><path fill="#ffffff" d="M 298.074219 193.71875 L 285.503906 193.71875 L 285.503906 206.28125 L 272.933594 206.28125 L 272.933594 193.71875 L 260.363281 193.71875 L 260.363281 181.152344 L 272.933594 181.152344 L 272.933594 168.589844 L 285.503906 168.589844 L 285.503906 181.152344 L 298.074219 181.152344 L 298.074219 193.71875 " fill-opacity="1" fill-rule="nonzero"/><path fill="#ffffff" d="M 235.183594 214.347656 C 225.808594 230.960938 208 242.191406 187.554688 242.191406 C 167.238281 242.191406 149.53125 231.101562 140.109375 214.660156 C 135.53125 206.671875 132.902344 197.425781 132.902344 187.550781 C 132.902344 157.382812 157.371094 132.925781 187.554688 132.925781 C 207.742188 132.925781 225.355469 143.871094 234.820312 160.148438 L 282.59375 132.652344 C 263.609375 99.886719 228.160156 77.84375 187.554688 77.84375 C 126.9375 77.84375 77.796875 126.964844 77.796875 187.550781 C 77.796875 207.433594 83.085938 226.074219 92.332031 242.152344 C 111.273438 275.089844 146.824219 297.273438 187.554688 297.273438 C 228.367188 297.273438 263.972656 275 282.878906 241.972656 L 235.183594 214.347656 " fill-opacity="1" fill-rule="nonzero"/></svg>