<svg xmlns="http://www.w3.org/2000/svg" xmlns:xlink="http://www.w3.org/1999/xlink" width="500" zoomAndPan="magnify" viewBox="0 0 375 374.999991" height="500" preserveAspectRatio="xMidYMid meet" version="1.0"><defs><clipPath id="id1"><path d="M 62.578125 249 L 188 249 L 188 375 L 62.578125 375 Z M 62.578125 249 " clip-rule="nonzero"/></clipPath><clipPath id="id2"><path d="M 62.578125 125 L 188 125 L 188 250 L 62.578125 250 Z M 62.578125 125 " clip-rule="nonzero"/></clipPath><clipPath id="id3"><path d="M 62.578125 0 L 188 0 L 188 126 L 62.578125 126 Z M 62.578125 0 " clip-rule="nonzero"/></clipPath><clipPath id="id4"><path d="M 187 0 L 312.328125 0 L 312.328125 126 L 187 126 Z M 187 0 " clip-rule="nonzero"/></clipPath><clipPath id="id5"><path d="M 187 125 L 312.328125 125 L 312.328125 250 L 187 250 Z M 187 125 " clip-rule="nonzero"/></clipPath></defs><g clip-path="url(#id1)"><path fill="#0acf83" d="M 125.015625 374.882812 C 159.480469 374.882812 187.453125 346.898438 187.453125 312.421875 L 187.453125 249.960938 L 125.015625 249.960938 C 90.550781 249.960938 62.578125 277.945312 62.578125 312.421875 C 62.578125 346.898438 90.550781 374.882812 125.015625 374.882812 Z M 125.015625 374.882812 " fill-opacity="1" fill-rule="nonzero"/></g><g clip-path="url(#id2)"><path fill="#a259ff" d="M 62.578125 187.5 C 62.578125 153.023438 90.550781 125.039062 125.015625 125.039062 L 187.453125 125.039062 L 187.453125 249.960938 L 125.015625 249.960938 C 90.550781 249.960938 62.578125 221.976562 62.578125 187.5 Z M 62.578125 187.5 " fill-opacity="1" fill-rule="nonzero"/></g><g clip-path="url(#id3)"><path fill="#f24e1e" d="M 62.578125 62.578125 C 62.578125 28.101562 90.550781 0.117188 125.015625 0.117188 L 187.453125 0.117188 L 187.453125 125.039062 L 125.015625 125.039062 C 90.550781 125.039062 62.578125 97.054688 62.578125 62.578125 Z M 62.578125 62.578125 " fill-opacity="1" fill-rule="nonzero"/></g><g clip-path="url(#id4)"><path fill="#ff7262" d="M 187.453125 0.117188 L 249.890625 0.117188 C 284.355469 0.117188 312.328125 28.101562 312.328125 62.578125 C 312.328125 97.054688 284.355469 125.039062 249.890625 125.039062 L 187.453125 125.039062 Z M 187.453125 0.117188 " fill-opacity="1" fill-rule="nonzero"/></g><g clip-path="url(#id5)"><path fill="#1abcfe" d="M 312.328125 187.5 C 312.328125 221.976562 284.355469 249.960938 249.890625 249.960938 C 215.425781 249.960938 187.453125 221.976562 187.453125 187.5 C 187.453125 153.023438 215.425781 125.039062 249.890625 125.039062 C 284.355469 125.039062 312.328125 153.023438 312.328125 187.5 Z M 312.328125 187.5 " fill-opacity="1" fill-rule="nonzero"/></g></svg>