<svg xmlns="http://www.w3.org/2000/svg" xmlns:xlink="http://www.w3.org/1999/xlink" width="500" zoomAndPan="magnify" viewBox="0 0 375 374.999991" height="500" preserveAspectRatio="xMidYMid meet" version="1.0"><path fill="#ffffff" d="M 270.273438 210.5625 L 270.273438 267.429688 L 235.046875 267.429688 L 235.046875 210.5625 C 235.046875 202.347656 235.046875 182.445312 217.039062 182.445312 C 196.503906 182.445312 195.398438 203.136719 195.398438 203.136719 L 195.398438 267.585938 L 160.015625 267.585938 L 160.015625 153.695312 L 195.398438 153.695312 L 195.398438 169.335938 C 203.769531 152.273438 220.828125 151.011719 232.046875 151.011719 C 244.839844 151.011719 256.214844 155.90625 262.847656 166.964844 C 268.535156 176.285156 270.273438 189.554688 270.273438 210.5625 Z M 270.273438 210.5625 " fill-opacity="1" fill-rule="nonzero"/><path fill="#ffffff" d="M 145.796875 117.839844 C 145.796875 118.511719 145.765625 119.183594 145.699219 119.851562 C 145.632812 120.519531 145.535156 121.1875 145.402344 121.84375 C 145.273438 122.503906 145.109375 123.15625 144.914062 123.800781 C 144.71875 124.445312 144.492188 125.074219 144.234375 125.699219 C 143.976562 126.320312 143.691406 126.925781 143.375 127.519531 C 143.054688 128.113281 142.710938 128.6875 142.335938 129.246094 C 141.964844 129.808594 141.5625 130.347656 141.136719 130.867188 C 140.710938 131.386719 140.257812 131.882812 139.785156 132.359375 C 139.308594 132.835938 138.808594 133.285156 138.289062 133.710938 C 137.769531 134.140625 137.230469 134.539062 136.671875 134.914062 C 136.113281 135.285156 135.535156 135.632812 134.945312 135.949219 C 134.351562 136.265625 133.742188 136.554688 133.121094 136.8125 C 132.5 137.066406 131.867188 137.292969 131.222656 137.488281 C 130.582031 137.683594 129.929688 137.847656 129.269531 137.980469 C 128.609375 138.109375 127.945312 138.210938 127.277344 138.273438 C 126.605469 138.339844 125.9375 138.375 125.261719 138.375 C 124.589844 138.375 123.917969 138.339844 123.25 138.273438 C 122.582031 138.210938 121.917969 138.109375 121.257812 137.980469 C 120.597656 137.847656 119.945312 137.683594 119.300781 137.488281 C 118.660156 137.292969 118.027344 137.066406 117.40625 136.8125 C 116.785156 136.554688 116.175781 136.265625 115.582031 135.949219 C 114.988281 135.632812 114.414062 135.285156 113.855469 134.914062 C 113.296875 134.539062 112.757812 134.140625 112.234375 133.710938 C 111.714844 133.285156 111.21875 132.835938 110.742188 132.359375 C 110.265625 131.882812 109.816406 131.386719 109.390625 130.867188 C 108.960938 130.347656 108.5625 129.808594 108.1875 129.246094 C 107.816406 128.6875 107.46875 128.113281 107.152344 127.519531 C 106.835938 126.925781 106.546875 126.320312 106.292969 125.699219 C 106.035156 125.074219 105.808594 124.445312 105.613281 123.800781 C 105.417969 123.15625 105.253906 122.503906 105.121094 121.84375 C 104.992188 121.1875 104.894531 120.519531 104.828125 119.851562 C 104.761719 119.183594 104.726562 118.511719 104.726562 117.839844 C 104.726562 117.167969 104.761719 116.496094 104.828125 115.828125 C 104.894531 115.15625 104.992188 114.492188 105.121094 113.832031 C 105.253906 113.171875 105.417969 112.523438 105.613281 111.878906 C 105.808594 111.234375 106.035156 110.601562 106.292969 109.980469 C 106.546875 109.359375 106.835938 108.753906 107.152344 108.160156 C 107.46875 107.566406 107.816406 106.988281 108.1875 106.429688 C 108.5625 105.871094 108.960938 105.332031 109.390625 104.8125 C 109.816406 104.292969 110.265625 103.792969 110.742188 103.320312 C 111.21875 102.84375 111.714844 102.390625 112.234375 101.964844 C 112.757812 101.539062 113.296875 101.136719 113.855469 100.765625 C 114.414062 100.390625 114.988281 100.046875 115.582031 99.730469 C 116.175781 99.410156 116.785156 99.125 117.40625 98.867188 C 118.027344 98.609375 118.660156 98.382812 119.300781 98.1875 C 119.945312 97.992188 120.597656 97.828125 121.257812 97.699219 C 121.917969 97.566406 122.582031 97.46875 123.25 97.402344 C 123.917969 97.335938 124.589844 97.304688 125.261719 97.304688 C 125.9375 97.304688 126.605469 97.335938 127.277344 97.402344 C 127.945312 97.46875 128.609375 97.566406 129.269531 97.699219 C 129.929688 97.828125 130.582031 97.992188 131.222656 98.1875 C 131.867188 98.382812 132.5 98.609375 133.121094 98.867188 C 133.742188 99.125 134.351562 99.410156 134.945312 99.730469 C 135.535156 100.046875 136.113281 100.390625 136.671875 100.765625 C 137.230469 101.136719 137.769531 101.539062 138.289062 101.964844 C 138.808594 102.390625 139.308594 102.84375 139.785156 103.320312 C 140.257812 103.792969 140.710938 104.292969 141.136719 104.8125 C 141.5625 105.332031 141.964844 105.871094 142.335938 106.429688 C 142.710938 106.988281 143.054688 107.566406 143.375 108.160156 C 143.691406 108.753906 143.976562 109.359375 144.234375 109.980469 C 144.492188 110.601562 144.71875 111.234375 144.914062 111.878906 C 145.109375 112.523438 145.273438 113.171875 145.402344 113.832031 C 145.535156 114.492188 145.632812 115.15625 145.699219 115.828125 C 145.765625 116.496094 145.796875 117.167969 145.796875 117.839844 Z M 145.796875 117.839844 " fill-opacity="1" fill-rule="nonzero"/><path fill="#ffffff" d="M 107.730469 153.695312 L 142.953125 153.695312 L 142.953125 267.585938 L 107.730469 267.585938 Z M 107.730469 153.695312 " fill-opacity="1" fill-rule="nonzero"/><path fill="#ffffff" d="M 187.5 375 C 84.191406 375 0 290.964844 0 187.5 C 0 84.035156 84.191406 0 187.5 0 C 290.804688 0 375 84.191406 375 187.5 C 375 290.804688 290.964844 375 187.5 375 Z M 187.5 10.265625 C 89.722656 10.265625 10.265625 89.722656 10.265625 187.5 C 10.265625 285.277344 89.722656 364.734375 187.5 364.734375 C 285.277344 364.734375 364.734375 285.277344 364.734375 187.5 C 364.734375 89.722656 285.277344 10.265625 187.5 10.265625 Z M 187.5 10.265625 " fill-opacity="1" fill-rule="nonzero"/></svg>