<svg xmlns="http://www.w3.org/2000/svg" xmlns:xlink="http://www.w3.org/1999/xlink" width="500" zoomAndPan="magnify" viewBox="0 0 375 374.999991" height="500" preserveAspectRatio="xMidYMid meet" version="1.0"><path fill="#ffffff" d="M 269.957031 146.273438 C 269.957031 146.273438 272.800781 206.140625 227.148438 243.101562 C 159.066406 298.390625 85.613281 253.527344 85.613281 253.527344 C 85.613281 253.527344 103.464844 253.84375 119.261719 249.578125 C 135.058594 245.3125 146.273438 235.203125 146.273438 235.203125 C 146.273438 235.203125 129.054688 231.570312 120.207031 225.09375 C 111.203125 218.617188 107.886719 206.140625 107.886719 206.140625 C 107.886719 206.140625 113.730469 206.613281 117.523438 206.613281 C 121.3125 206.457031 125.894531 204.71875 125.894531 204.71875 C 125.894531 204.71875 113.574219 203.296875 102.042969 190.34375 C 93.039062 180.234375 93.671875 163.332031 93.671875 163.332031 C 93.671875 163.332031 99.042969 166.492188 102.042969 167.28125 C 104.886719 168.070312 110.414062 168.070312 110.414062 168.070312 C 110.414062 168.070312 99.671875 161.59375 94.777344 145.167969 C 90.039062 128.582031 99.199219 111.835938 99.199219 111.835938 C 99.199219 111.835938 114.996094 131.109375 138.847656 143.585938 C 162.699219 156.066406 185.128906 155.59375 185.128906 155.59375 C 185.128906 155.59375 181.8125 145.640625 187.5 131.109375 C 193.1875 116.417969 206.140625 105.992188 225.726562 104.414062 C 245.3125 102.832031 257.792969 117.679688 257.792969 117.679688 C 257.792969 117.679688 263.796875 116.574219 270.746094 114.046875 C 277.695312 111.519531 284.488281 108.363281 284.488281 108.363281 C 284.488281 108.363281 282.117188 115.785156 277.378906 121.628906 C 272.640625 127.476562 267.269531 130.949219 267.269531 130.949219 C 267.269531 130.949219 273.429688 130.476562 279.589844 128.738281 C 285.75 127 289.226562 125.261719 289.226562 125.261719 C 282.433594 137.269531 269.957031 146.273438 269.957031 146.273438 Z M 269.957031 146.273438 " fill-opacity="1" fill-rule="nonzero"/><path fill="#ffffff" d="M 187.5 375 C 84.191406 375 0 290.964844 0 187.5 C 0 84.035156 84.191406 0 187.5 0 C 290.804688 0 375 84.191406 375 187.5 C 375 290.804688 290.964844 375 187.5 375 Z M 187.5 10.265625 C 89.722656 10.265625 10.265625 89.722656 10.265625 187.5 C 10.265625 285.277344 89.722656 364.734375 187.5 364.734375 C 285.277344 364.734375 364.734375 285.277344 364.734375 187.5 C 364.734375 89.722656 285.277344 10.265625 187.5 10.265625 Z M 187.5 10.265625 " fill-opacity="1" fill-rule="nonzero"/></svg>